<svg width="101" height="157" viewBox="0 0 101 157" fill="none" xmlns="http://www.w3.org/2000/svg">
<path d="M55.3648 45.8658C55.3648 45.8658 49.6422 30.9261 45.045 21.7863C40.6274 13.0037 32.432 5.28314e-05 32.432 5.28314e-05C32.432 5.28314e-05 45.4355 8.19557 54.2181 12.6132C63.3579 17.2104 78.2976 22.933 78.2976 22.933C78.2976 22.933 84.0325 37.8665 88.6174 47.0124C92.968 55.6911 101 68.568 101 68.568C101 68.568 88.123 60.5361 79.4443 56.1856C70.2982 51.6008 55.3648 45.8658 55.3648 45.8658Z" fill="#D9D9D9"/>
<path d="M55.3648 110.269C55.3648 110.269 49.6422 125.208 45.045 134.348C40.6274 143.131 32.432 156.134 32.432 156.134C32.432 156.134 45.4355 147.939 54.2181 143.521C63.3579 138.924 78.2976 133.201 78.2976 133.201C78.2976 133.201 84.0325 118.268 88.6174 109.122C92.968 100.443 101 87.5664 101 87.5664C101 87.5664 88.123 95.5983 79.4443 99.9489C70.2982 104.534 55.3648 110.269 55.3648 110.269Z" fill="#D9D9D9"/>
<path d="M48.6479 94.5136C48.6479 94.5136 34.0375 87.9961 24.3239 84.784C14.99 81.6974 -2.3839e-05 78.2975 -2.3839e-05 78.2975C-2.3839e-05 78.2975 14.99 74.8977 24.3239 71.8112C34.0375 68.5992 48.6479 62.0816 48.6479 62.0816C48.6479 62.0816 63.2626 68.586 72.9718 71.8112C82.1849 74.8716 96.9698 78.2974 96.9698 78.2974C96.9698 78.2974 82.1849 81.7235 72.9718 84.784C63.2627 88.0092 48.6479 94.5136 48.6479 94.5136Z" fill="#D9D9D9"/>
</svg>
